<svg version="1.1" id="Layer_1" xmlns="http://www.w3.org/2000/svg" xmlns:xlink="http://www.w3.org/1999/xlink" x="0px" y="0px"
	 width="100%" viewBox="0 0 598 260" enable-background="new 0 0 598 260" xml:space="preserve">
<path fill="#000000" opacity="1.000000" stroke="none" 
	d="
M599.000000,207.000000 
	C599.000000,220.020889 599.000000,233.041794 598.531372,246.531219 
	C556.337952,246.999756 514.613220,247.014938 472.888458,246.992661 
	C454.938934,246.983078 436.989502,246.895813 419.250366,246.548874 
	C433.031647,243.152802 440.364990,234.220581 440.842072,219.783325 
	C441.479889,200.482849 441.003601,181.145432 440.988678,161.823883 
	C440.987823,160.705215 440.833679,159.586685 440.734589,158.248108 
	C435.816284,158.248108 431.215912,158.248108 426.353729,158.248108 
	C426.149048,159.658905 425.953003,161.010178 425.738434,162.488937 
	C410.824860,153.002853 394.330597,156.179352 386.762390,164.791626 
	C376.391663,176.593018 375.514191,193.646881 383.379791,206.593231 
	C386.672638,212.013092 391.377045,216.376923 397.742920,217.967499 
	C407.535675,220.414322 417.029358,219.807907 425.816132,212.863556 
	C425.902069,214.820511 425.986847,215.935104 425.994293,217.050201 
	C426.047760,225.073547 422.242706,231.094742 415.984619,232.919510 
	C407.823975,235.299026 401.865662,233.067886 396.907440,225.985840 
	C396.260834,225.062317 394.903564,224.154327 393.829865,224.097244 
	C389.708710,223.878082 385.568970,224.008514 380.180725,224.008514 
	C381.693817,228.086761 382.572815,231.531174 384.185242,234.588806 
	C388.126587,242.062683 395.600952,244.433487 402.498657,246.916306 
	C338.772339,246.988724 275.507141,246.988724 212.000244,246.988724 
	C212.000244,223.309189 211.981018,200.168106 212.004837,177.027039 
	C212.038788,144.031128 212.104294,111.035255 212.442307,78.216904 
	C214.831711,81.267197 216.420609,84.808533 219.130127,86.893723 
	C229.331940,94.744804 240.887772,94.909042 252.420364,90.676804 
	C266.815918,85.393898 270.664490,64.832161 259.094513,54.865314 
	C255.776169,52.006744 251.028641,50.696190 246.793274,49.042412 
	C241.924423,47.141285 236.662598,46.127567 231.996994,43.854843 
	C226.109116,40.986721 225.391449,34.651043 229.976959,31.046110 
	C235.440613,26.750820 244.685638,28.876606 248.004837,35.035721 
	C248.655487,36.243092 250.053925,37.771919 251.203842,37.857468 
	C255.633911,38.187046 260.103088,37.991150 265.012573,37.991150 
	C264.603149,30.936384 262.786255,24.728142 257.203552,21.306623 
	C252.373596,18.346434 246.469711,17.138489 241.501648,15.083631 
	C360.975189,15.007509 479.987579,15.003755 599.000000,15.000000 
	C599.000000,67.354225 599.000000,119.708458 598.620361,172.620743 
	C595.456604,169.106491 593.390259,164.165207 589.735962,161.146164 
	C582.544983,155.205368 573.445374,156.040894 565.061646,157.683853 
	C555.945984,159.470245 550.193542,166.721786 550.000732,174.414398 
	C549.798157,182.495605 554.694641,188.653137 564.132629,191.923172 
	C569.241089,193.693100 574.532410,194.980255 579.524170,197.017120 
	C581.251709,197.722015 582.324158,200.032288 583.695862,201.609268 
	C581.870544,203.064850 580.221375,205.418076 578.188721,205.816940 
	C570.373291,207.350494 567.344421,205.468109 564.297485,198.239563 
	C559.367737,198.239563 554.419434,198.239563 549.034485,198.239563 
	C549.372437,204.726639 551.687988,209.845184 556.544739,213.823059 
	C563.233093,219.301102 571.141235,219.248901 579.155884,219.028824 
	C586.692139,218.821884 592.429260,215.720093 596.393494,209.258972 
	C596.966797,208.324631 598.116821,207.744202 599.000000,207.000000 
M338.063110,47.778835 
	C335.809418,54.172840 334.933289,60.456470 335.785553,67.479568 
	C338.562469,90.362488 361.965424,99.764053 379.689850,88.853081 
	C380.608673,88.287453 381.674225,87.960106 382.999939,87.377434 
	C382.999939,89.137527 383.008423,90.462753 382.998535,91.787857 
	C382.942719,99.266777 378.895813,105.254524 372.762115,106.941162 
	C364.859497,109.114220 358.275574,106.702530 354.017181,100.252014 
	C353.383148,99.291573 352.139832,98.178635 351.123444,98.121986 
	C346.860504,97.884361 342.576630,98.021675 337.082031,98.021675 
	C338.699921,102.201622 339.476959,105.798210 341.330475,108.709457 
	C347.704315,118.720779 357.689423,120.899910 368.771942,121.074074 
	C386.460693,121.352036 398.092926,109.258461 398.017151,91.669670 
	C397.939728,73.693901 398.000000,55.717533 398.000000,37.741428 
	C398.000000,35.971798 398.000000,34.202168 398.000000,32.220688 
	C392.757599,32.220688 388.155548,32.220688 383.341248,32.220688 
	C383.135681,33.689102 382.947510,35.033161 382.737854,36.530811 
	C365.309479,25.503569 344.881592,30.812225 338.063110,47.778835 
M447.885345,89.551498 
	C449.087280,88.798180 450.289215,88.044861 452.084656,86.919571 
	C451.188263,92.393204 453.748535,93.515541 457.811615,93.021355 
	C458.961273,92.881523 460.158569,92.874123 461.306061,93.022423 
	C465.571777,93.573692 467.159027,92.019753 467.095551,87.495323 
	C466.857056,70.499001 467.007812,53.497307 466.985352,36.497662 
	C466.983490,35.072475 466.777344,33.647560 466.669250,32.262974 
	C461.567261,32.262974 456.955780,32.262974 452.283752,32.262974 
	C452.094727,33.788315 451.937714,35.055279 451.771637,36.395283 
	C435.065399,26.349943 419.185150,30.869896 412.177704,39.423763 
	C401.837311,52.046200 400.852722,70.870987 412.538940,84.863487 
	C419.788788,93.544128 434.856781,96.190170 447.885345,89.551498 
M485.026123,171.073654 
	C490.152618,173.902740 492.326691,178.112991 492.084930,184.074463 
	C491.747803,192.388077 491.945282,200.726028 492.013428,209.052765 
	C492.104767,220.217270 490.346558,218.794678 502.232300,219.062012 
	C506.023926,219.147293 507.111908,217.695587 507.061523,214.077026 
	C506.896973,202.254562 506.941223,190.428009 507.018127,178.603760 
	C507.082336,168.725906 498.306519,156.617111 485.314758,156.888123 
	C478.560028,157.029037 472.039734,157.271133 465.643646,162.258484 
	C465.643646,153.364777 465.643646,145.789124 465.643646,138.000015 
	C462.505676,138.000015 459.823395,138.234741 457.197906,137.948517 
	C452.507263,137.437180 450.830017,139.020020 450.889282,143.996124 
	C451.147156,165.643997 450.950928,187.296844 451.020203,208.947571 
	C451.056305,220.235413 449.350983,218.797760 461.127136,219.059067 
	C464.804657,219.140686 466.145264,217.916092 466.064514,214.181702 
	C465.866486,205.025970 465.875519,195.860992 466.028748,186.703537 
	C466.278534,171.776260 476.234924,167.803787 485.026123,171.073654 
M262.322357,157.301697 
	C259.333435,158.607315 256.344482,159.912949 254.314636,160.799637 
	C249.280167,155.752991 243.539047,159.083572 238.000000,157.866043 
	C238.000000,160.367828 238.000000,162.156754 238.000000,163.945663 
	C238.000000,179.263855 237.978867,194.582092 238.007477,209.900223 
	C238.026337,219.991150 236.919724,218.752167 247.075058,219.089539 
	C251.597610,219.239792 253.151596,217.983444 253.125031,213.237076 
	C253.063904,202.310928 253.362411,191.360168 254.111465,180.460388 
	C254.572983,173.744537 260.353546,169.622238 267.293701,170.002609 
	C274.066467,170.373779 278.959747,175.397629 278.989960,182.122391 
	C279.030365,191.113327 278.945129,200.104996 279.013977,209.095581 
	C279.099121,220.215561 277.352051,218.831924 289.270721,219.045532 
	C292.593292,219.105057 294.103088,218.161118 294.058258,214.541016 
	C293.903625,202.055267 294.315613,189.554977 293.864502,177.083633 
	C293.639923,170.874222 290.528839,165.712982 285.424164,161.631958 
	C278.651154,156.217224 270.913574,156.917389 262.322357,157.301697 
M273.000000,41.539627 
	C273.000061,51.031647 272.989166,60.523682 273.003296,70.015678 
	C273.017487,79.547638 280.869263,91.040604 290.519989,92.375648 
	C298.831604,93.525444 306.537781,93.380188 313.978027,88.163414 
	C313.487457,92.301033 315.465881,93.372086 318.748352,93.016266 
	C319.735870,92.909225 320.744873,93.000214 321.744019,92.999954 
	C328.998199,92.998070 328.999390,92.998024 328.999756,85.572876 
	C329.000549,69.586395 329.000000,53.599922 329.000000,37.613445 
	C329.000000,35.855579 329.000000,34.097713 329.000000,32.285095 
	C323.678192,32.285095 319.092743,32.285095 314.000000,32.285095 
	C314.000000,34.350914 314.000092,36.138222 314.000000,37.925526 
	C313.999481,47.250973 314.148773,56.579533 313.954926,65.900955 
	C313.772675,74.665245 308.244751,80.152283 300.214264,79.998779 
	C292.971069,79.860329 288.004730,73.953064 288.000946,65.459801 
	C287.996735,55.967831 287.999939,46.475861 287.999939,36.983891 
	C287.999939,35.405838 287.999939,33.827785 287.999939,32.331253 
	C282.582184,32.331253 277.996704,32.331253 273.000000,32.331253 
	C273.000000,35.289532 273.000000,37.921455 273.000000,41.539627 
M342.855804,215.577972 
	C348.521973,210.460068 352.128937,204.737778 350.114380,196.504669 
	C348.313660,189.145630 342.659973,186.386215 336.590881,184.078568 
	C331.849396,182.275726 326.770813,181.328720 322.103455,179.376373 
	C320.141022,178.555481 318.852203,176.124207 317.257141,174.424988 
	C319.411163,172.950897 321.391907,170.663223 323.752808,170.160400 
	C329.994507,168.831039 334.208710,171.718246 335.633087,177.767395 
	C340.542328,177.767395 345.001129,177.767395 349.859192,177.767395 
	C350.085846,170.639969 347.550903,165.129929 342.044891,161.027313 
	C334.936157,155.730515 326.611176,156.626160 318.625122,157.172012 
	C310.844116,157.703842 303.007233,165.629669 302.027191,172.722824 
	C300.985657,180.260574 304.581757,186.652939 312.857971,190.282379 
	C318.988770,192.970947 325.586151,194.580231 331.809448,197.083603 
	C333.455200,197.745590 334.486206,199.935883 335.799469,201.424438 
	C334.011078,202.937271 332.424683,205.346313 330.398254,205.803085 
	C322.836273,207.507523 319.756775,205.630402 316.133972,198.330200 
	C311.131805,198.330200 306.205383,198.330200 300.994995,198.330200 
	C301.605011,205.012756 303.699951,210.374268 309.246887,214.104950 
	C319.904144,221.272644 330.921509,220.599274 342.855804,215.577972 
M537.748535,204.999771 
	C534.125061,205.557358 532.192078,203.498459 532.120117,200.341995 
	C531.893555,190.403900 532.036621,180.457367 532.036621,169.888412 
	C536.926758,169.888412 541.311768,169.888412 545.706848,169.888412 
	C545.706848,165.661346 545.706848,162.073044 545.706848,157.857559 
	C541.044556,157.857559 536.662170,157.857559 532.000000,157.857559 
	C532.000000,154.908554 532.000000,152.594025 532.000000,150.279495 
	C532.000000,148.004807 532.000000,145.730133 532.000000,143.008911 
	C527.769165,143.008911 524.096619,142.686691 520.536072,143.177109 
	C519.223450,143.357925 517.347778,145.344254 517.166321,146.699524 
	C516.690369,150.254501 517.005737,153.915421 517.005737,157.622604 
	C514.393372,157.919647 512.333557,158.153870 510.358429,158.378464 
	C509.306885,169.006638 509.306885,169.006638 517.000061,170.793427 
	C517.000061,180.837982 516.942688,190.973373 517.017822,201.107773 
	C517.080383,209.545959 521.213135,216.360062 527.714722,217.693710 
	C532.524902,218.680420 537.550110,218.710052 542.489807,218.902542 
	C543.559509,218.944244 545.571472,217.923889 545.617798,217.282181 
	C545.878418,213.670975 546.180725,209.895493 545.304932,206.473999 
	C545.050354,205.479431 540.970093,205.464172 537.748535,204.999771 
M477.000000,65.500000 
	C477.000000,71.323921 476.951721,77.148338 477.010284,82.971664 
	C477.123535,94.231644 475.357330,92.798454 487.134399,93.059082 
	C490.812073,93.140472 492.148865,91.909340 492.064148,88.181953 
	C491.863831,79.367424 491.677185,70.530197 492.086823,61.730160 
	C492.540680,51.979958 495.060638,45.820473 506.468292,45.851913 
	C507.637817,45.855137 509.687347,43.999760 509.823639,42.831314 
	C510.258911,39.098705 509.985138,35.283401 509.985138,31.469534 
	C502.883881,30.018835 497.218384,31.779581 492.381989,36.766861 
	C492.042847,34.908958 491.792664,33.538658 491.571686,32.328156 
	C486.583405,32.328156 482.000854,32.328156 477.000000,32.328156 
	C477.000000,43.267372 477.000000,53.883686 477.000000,65.500000 
M219.576492,219.000000 
	C227.999664,218.998718 227.999893,218.998718 227.999954,210.746628 
	C228.000092,190.935898 228.023270,171.125122 227.990463,151.314453 
	C227.973282,140.929276 229.172379,142.236115 218.642319,141.917358 
	C214.311661,141.786270 212.867096,143.089355 212.908096,147.544189 
	C213.110321,169.517258 213.111374,191.494247 212.907455,213.467285 
	C212.865967,217.937424 214.350876,219.624695 219.576492,219.000000 
M372.000000,187.500000 
	C372.000000,177.769928 372.000000,168.039856 372.000000,158.284195 
	C366.665314,158.284195 362.086975,158.284195 357.000000,158.284195 
	C357.000000,160.344788 357.000000,162.127823 357.000000,163.910873 
	C357.000000,178.865173 356.936371,193.819839 357.020569,208.773666 
	C357.085449,220.292526 355.231750,218.813217 367.407959,219.050293 
	C370.867157,219.117645 372.122986,217.894226 372.054871,214.419693 
	C371.885620,205.782761 371.999695,197.140259 372.000000,187.500000 
M373.684174,140.282837 
	C371.933319,136.014359 368.761353,134.823532 364.227783,134.851685 
	C359.684662,134.879898 357.219910,137.148254 356.284271,140.836700 
	C355.249329,144.916626 355.389038,149.574142 360.115662,151.364838 
	C362.876007,152.410614 366.688995,152.676865 369.327240,151.590652 
	C373.585907,149.837296 374.578644,145.550919 373.684174,140.282837 
z"/>
<path fill="#FFFFFF" opacity="1.000000" stroke="none" 
	d="
M212.156326,78.039368 
	C212.104294,111.035255 212.038788,144.031128 212.004837,177.027039 
	C211.981018,200.168106 212.000244,223.309189 212.000244,246.988724 
	C275.507141,246.988724 338.772339,246.988724 402.962280,246.983994 
	C408.937988,246.934128 413.989014,246.888992 419.040009,246.843842 
	C436.989502,246.895813 454.938934,246.983078 472.888458,246.992661 
	C514.613220,247.014938 556.337952,246.999756 598.531372,246.999878 
	C599.000000,251.662567 599.000000,256.325134 599.000000,260.993835 
	C437.979095,261.000000 276.958221,261.000000 115.622711,260.621704 
	C117.212662,260.086304 119.117226,259.929199 121.413208,259.779663 
	C128.291397,257.698853 134.778152,255.610489 141.312561,253.521332 
	C141.360229,253.520538 141.453003,253.542496 141.741852,253.422974 
	C142.724258,252.891891 143.417801,252.480331 144.074005,252.053955 
	C144.036652,252.039139 144.032379,252.119385 144.334488,252.075775 
	C145.092300,251.696823 145.547989,251.361481 146.354401,250.978577 
	C166.722427,238.753128 181.071060,222.197952 186.881470,198.591171 
	C187.938293,193.068481 189.746628,187.953903 189.776962,182.828827 
	C189.994705,146.054382 189.899750,109.277565 189.736160,72.502251 
	C189.722076,69.334076 188.493652,66.171303 187.894714,62.586563 
	C187.361343,58.989742 186.940735,55.766151 186.130554,52.643639 
	C183.669418,43.158180 178.523590,35.283333 172.467758,27.573736 
	C166.992432,20.603201 160.758041,14.767240 153.142578,10.868788 
	C145.063248,6.732876 136.313354,3.813787 126.883759,2.601134 
	C123.453850,1.820621 120.226921,1.410310 117.000000,1.000000 
	C277.666656,1.000000 438.333344,1.000000 599.000000,1.000000 
	C599.000000,5.392929 599.000000,9.722337 599.000000,14.525872 
	C479.987579,15.003755 360.975189,15.007509 241.082855,15.016165 
	C238.787643,15.065735 237.372375,15.110405 235.494659,15.083205 
	C227.431931,15.011336 219.831619,15.011336 212.154068,15.011336 
	C212.154068,21.015730 212.154068,26.484512 212.087616,32.413513 
	C212.065887,36.596569 212.110580,40.319408 212.083313,44.504738 
	C212.060196,52.967293 212.109039,60.967358 212.089844,69.417526 
	C212.066635,72.591545 212.111481,75.315453 212.156326,78.039368 
z"/>
<path fill="#177A7A" opacity="1.000000" stroke="none" 
	d="
M127.086754,2.971337 
	C136.313354,3.813787 145.063248,6.732876 153.142578,10.868788 
	C160.758041,14.767240 166.992432,20.603201 172.467758,27.573736 
	C178.523590,35.283333 183.669418,43.158180 186.130554,52.643639 
	C186.940735,55.766151 187.361343,58.989742 187.545410,62.666832 
	C186.786224,64.011154 186.069565,64.897682 186.159164,65.693420 
	C186.650009,70.052681 187.570816,74.373505 187.874786,78.740196 
	C188.066315,81.491364 187.395370,84.296654 187.185089,87.083229 
	C186.928574,90.482376 186.749481,93.887352 186.497711,97.917038 
	C188.982330,99.743378 188.608246,106.050896 184.998642,111.299828 
	C185.689026,113.393600 186.761932,115.183746 186.793121,116.991875 
	C186.939651,125.482002 186.845398,133.977631 186.739059,142.470078 
	C186.698776,145.686722 186.221359,148.902100 186.259506,152.114319 
	C186.298782,155.421356 187.115036,158.760056 186.814041,162.012985 
	C186.664154,163.632996 184.760757,165.081467 183.693924,166.637253 
	C183.554688,166.840317 183.674820,167.221237 183.674820,167.537018 
	C185.067505,167.928024 186.431671,168.311020 187.744827,168.679703 
	C187.211136,174.050140 185.597092,179.328690 186.502930,184.131989 
	C187.490936,189.370972 186.317047,193.230164 183.138840,197.457031 
	C184.489594,198.022705 185.649765,198.508575 186.809937,198.994431 
	C181.071060,222.197952 166.722427,238.753128 146.048248,251.001663 
	C144.938370,251.421341 144.485367,251.770355 144.032379,252.119385 
	C144.032379,252.119385 144.036652,252.039139 143.701935,252.034668 
	C142.729141,252.534302 142.091080,253.038406 141.453003,253.542496 
	C141.453003,253.542496 141.360229,253.520538 140.933960,253.350525 
	C134.207840,254.929642 127.903679,256.663696 121.621559,258.474335 
	C121.321854,258.560699 121.217247,259.324036 121.021774,259.772095 
	C119.117226,259.929199 117.212662,260.086304 115.154053,260.621704 
	C113.933327,261.000000 112.866661,261.000000 111.587402,260.746399 
	C111.938187,260.135254 112.501564,259.777679 113.730606,258.997589 
	C102.524529,258.997589 92.243515,258.996735 81.962502,258.998627 
	C80.635948,258.998871 79.309395,259.013123 77.542480,259.014160 
	C74.820114,258.750427 72.515274,258.619568 70.260590,258.211548 
	C64.611458,257.189178 58.985058,256.041321 52.963367,254.963776 
	C41.715687,250.750931 32.569233,243.882919 24.453650,235.752502 
	C20.333887,231.625229 16.802420,226.767868 13.687197,221.811768 
	C7.972259,212.719696 3.364352,203.100021 3.487699,192.050247 
	C5.323545,192.546387 6.934544,193.525406 8.361551,193.306274 
	C10.638522,192.956635 12.793133,191.810150 15.087351,191.169952 
	C15.450043,191.225998 15.724866,191.112686 16.328659,190.952454 
	C17.391405,188.663345 18.125177,186.421188 18.920780,183.990097 
	C16.403734,183.286346 14.405276,182.727570 11.738132,181.981842 
	C15.898736,178.664368 19.444691,175.836975 23.010170,173.265167 
	C23.340084,173.781708 23.650471,174.042679 23.960861,174.303635 
	C24.096352,174.022629 24.231842,173.741608 24.367329,173.460602 
	C23.914854,173.303818 23.462383,173.147034 22.988365,172.691177 
	C22.650488,169.243134 22.334160,166.094131 22.314779,162.952637 
	C23.008221,162.962982 23.404713,162.965820 23.876415,163.351974 
	C26.818220,172.574738 31.527929,180.293610 37.830917,187.189850 
	C35.987190,187.275009 34.356529,187.084564 31.847614,186.791565 
	C31.464405,192.196991 31.061325,197.882721 30.662729,203.505173 
	C32.317955,204.211823 33.748482,204.822540 34.551533,205.165375 
	C33.503513,207.916534 32.559608,210.394379 31.603472,212.904343 
	C36.912449,214.618118 38.331913,217.963913 37.471607,222.664398 
	C37.941734,222.717484 38.411858,222.770569 38.881985,222.823654 
	C39.585239,220.884598 40.288494,218.945541 40.995857,217.003235 
	C40.999966,217.000000 41.006351,216.991821 41.349007,216.993744 
	C42.477501,216.995667 43.263344,216.995667 44.789612,216.995667 
	C40.143314,212.369141 41.772957,208.959686 45.503551,205.534592 
	C44.635586,205.814651 43.767624,206.094711 42.022434,206.657822 
	C45.114616,203.060074 46.823051,199.992981 41.217049,197.329880 
	C43.524616,195.234009 45.332626,193.591873 47.460068,192.120773 
	C50.865395,193.150162 53.951290,194.008499 57.294319,195.197845 
	C57.859406,195.650146 58.167149,195.877075 58.475349,195.877686 
	C81.956825,195.925125 105.438400,195.976913 128.919632,195.910446 
	C129.934418,195.907578 130.946091,194.803101 132.312241,194.200104 
	C133.868927,194.143524 135.072571,194.098602 136.541168,194.227844 
	C138.203262,196.268402 139.600403,198.134811 140.635071,200.002716 
	C132.532959,200.834274 138.203888,208.448181 133.904388,211.286697 
	C136.002472,212.294724 137.570236,213.047974 139.138000,213.801224 
	C139.658752,212.167145 140.179489,210.533066 140.700241,208.898987 
	C140.918030,208.873856 141.135818,208.848724 141.353607,208.823578 
	C141.618866,211.186783 141.884140,213.549988 142.149399,215.913193 
	C141.617493,215.660400 141.085587,215.407608 140.553665,215.154816 
	C139.107574,217.183807 137.661484,219.212784 135.816269,221.801758 
	C139.159546,221.801758 141.082428,221.801758 143.049576,221.801758 
	C142.826416,220.922897 142.654205,220.244659 142.350006,219.046692 
	C144.020187,219.583054 145.312271,219.661362 146.137589,220.322433 
	C149.394775,222.931335 150.972702,220.124313 152.918686,218.422394 
	C154.111221,217.379456 155.285660,216.315796 156.468216,215.261444 
	C156.945435,215.411133 157.422653,215.560822 157.899872,215.710510 
	C157.412918,211.928619 154.717331,210.452789 151.140167,211.212769 
	C147.197830,212.050354 146.659790,209.670898 146.357574,206.999756 
	C148.207230,207.445496 149.698105,207.890274 151.188965,208.335037 
	C151.065811,207.989899 150.942657,207.644775 150.819504,207.299637 
	C153.384247,206.528595 155.948990,205.757553 158.764435,204.911133 
	C153.599564,202.862335 154.539810,199.433746 156.648026,195.511078 
	C157.923477,196.224380 159.129791,196.899017 160.336105,197.573654 
	C160.697678,197.316208 161.059265,197.058746 161.420837,196.801285 
	C160.377106,194.880569 158.307816,192.804138 158.569351,191.081604 
	C158.847748,189.248154 161.332870,187.749786 162.811569,186.151489 
	C161.475830,183.537262 155.838974,184.740005 158.122757,179.649063 
	C159.006851,178.232040 159.737747,177.078278 160.807098,175.819733 
	C161.410019,175.101562 161.674438,174.488190 161.949493,173.922729 
	C161.960098,173.970657 161.862106,173.976456 162.153320,173.837036 
	C162.609314,173.092728 162.774109,172.487808 162.950226,171.923035 
	C162.961533,171.963181 162.880081,171.945160 163.250031,171.926575 
	C165.086441,167.268265 166.552902,162.628525 168.182205,157.605057 
	C168.561264,156.261261 168.964951,155.301437 168.966293,154.341064 
	C169.002701,128.269608 169.120728,102.196838 168.861572,76.127907 
	C168.824661,72.415649 166.924744,68.721916 165.926331,65.024216 
	C165.965576,65.028816 165.942688,65.104492 165.957306,64.704887 
	C165.019455,62.215435 164.067017,60.125584 162.958832,57.707756 
	C160.000259,53.216129 157.447830,48.853626 154.336029,44.935371 
	C149.647461,39.031704 142.747803,36.465519 135.896301,33.460548 
	C135.137802,32.722122 134.484085,32.045929 133.792847,32.005096 
	C121.864792,31.300472 109.932121,30.674114 97.531792,30.023371 
	C88.520409,30.010748 79.976028,29.918600 71.436554,30.082432 
	C69.953049,30.110893 68.490295,31.220716 66.590988,31.916756 
	C64.712463,31.989559 63.260899,31.976685 61.507057,31.853287 
	C57.635635,32.286823 53.585194,31.535633 51.219437,35.391068 
	C51.175385,35.345352 51.302326,35.342522 50.959396,35.252762 
	C50.111240,35.533924 49.606010,35.904850 49.094364,36.206421 
	C49.087944,36.137062 49.222034,36.174831 48.850143,36.117401 
	C47.336735,36.761898 46.195225,37.463825 45.051094,38.116703 
	C45.048477,38.067657 45.144489,38.088417 44.895168,38.073021 
	C44.471466,38.390972 44.297089,38.724323 43.961166,39.370102 
	C39.302399,44.044170 34.805172,48.405807 30.025249,52.948250 
	C29.567858,53.519688 29.393164,53.910313 29.279354,54.229462 
	C29.340240,54.157982 29.449911,54.310421 29.078812,54.310184 
	C24.182083,60.103966 21.501678,66.443977 22.954536,74.325806 
	C22.957371,75.118675 22.891146,75.572304 22.520454,76.069031 
	C21.806807,76.740578 21.397625,77.369019 20.691547,78.019424 
	C19.927149,78.361069 19.459646,78.680756 18.734341,79.107803 
	C17.984617,79.476791 17.492699,79.738419 17.000961,79.604240 
	C17.098478,78.103508 16.797115,76.701042 17.361549,75.944679 
	C19.926897,72.507019 17.528429,71.277939 14.999790,70.000000 
	C15.000000,70.000000 15.000237,70.000305 14.911594,69.832245 
	C14.548013,69.776222 14.273073,69.888268 13.703457,70.125732 
	C12.605853,70.500771 11.802926,70.750381 10.892794,70.779709 
	C10.585037,70.285919 10.322944,70.098427 9.910467,69.829926 
	C9.547753,69.775177 9.273877,69.887436 8.679600,70.041618 
	C7.907763,70.721016 7.456326,71.358490 7.002596,71.997879 
	C7.000302,71.999786 6.996026,72.004654 6.605821,72.001938 
	C5.140621,70.995445 4.065626,69.991669 2.997220,68.557961 
	C3.979261,62.045521 4.954713,55.963017 5.941647,49.925171 
	C5.953128,49.969830 5.861084,49.975510 6.164997,49.817513 
	C6.643456,48.783562 6.818003,47.907616 6.999247,46.652527 
	C10.087860,40.848328 13.169776,35.423264 16.542152,29.997627 
	C17.219952,29.999836 17.607290,30.002615 17.997475,30.359394 
	C18.674021,31.978163 19.347723,33.242931 19.833601,34.155087 
	C19.461340,35.293076 18.910494,36.396152 18.756977,37.552006 
	C18.235312,41.479706 21.556665,41.844543 23.894432,43.262558 
	C23.711123,44.086994 23.632078,44.649837 23.553034,45.212681 
	C24.211174,44.909187 24.869312,44.605694 25.527451,44.302197 
	C25.018629,43.867821 24.509806,43.433449 24.043365,42.618168 
	C24.555790,40.820477 25.210657,39.435833 25.463589,37.981293 
	C26.507690,31.976912 28.603411,27.014330 35.387714,25.397896 
	C36.928600,25.030762 38.105968,23.137896 39.444756,21.952528 
	C38.224922,20.643873 36.076511,19.182518 36.301384,18.437243 
	C37.393925,14.816277 34.221077,15.701276 33.081562,14.432732 
	C34.368885,13.191983 35.310406,11.934404 36.566654,11.305213 
	C44.975109,7.093836 53.420403,2.927876 63.113766,2.546207 
	C65.537987,2.924833 67.884705,3.002855 70.231415,3.002594 
	C89.183197,3.000489 108.134972,2.983667 127.086754,2.971337 
M79.468880,236.283768 
	C86.885628,236.522400 94.301399,236.888916 101.719543,236.945999 
	C105.460503,236.974792 109.205780,236.442703 113.695152,236.021072 
	C118.182655,234.221466 117.995064,230.049561 117.826660,226.506180 
	C117.610413,221.956146 113.622032,220.440323 110.514832,218.910156 
	C110.628456,218.684586 110.750656,218.462204 110.838387,218.226974 
	C110.844948,218.209366 110.605148,218.041534 110.479759,218.041382 
	C101.348137,218.030060 92.216164,217.993286 83.085449,218.084106 
	C82.223618,218.092667 81.369812,218.908463 80.184441,219.914017 
	C78.595551,220.867081 76.545845,221.469147 75.503067,222.838196 
	C72.205940,227.166901 73.449554,231.103210 79.468880,236.283768 
M35.411221,220.482346 
	C35.411221,220.482346 35.524178,220.414734 35.411221,220.482346 
M39.590366,225.516357 
	C39.590366,225.516357 39.476646,225.585022 39.590366,225.516357 
M20.589247,191.516571 
	C20.589247,191.516571 20.477482,191.583344 20.589247,191.516571 
M17.410051,180.483505 
	C17.410051,180.483505 17.523542,180.415268 17.410051,180.483505 
z"/>
<path fill="#147576" opacity="1.000000" stroke="none" 
	d="
M14.999581,70.000000 
	C17.528429,71.277939 19.926897,72.507019 17.361549,75.944679 
	C16.797115,76.701042 17.098478,78.103508 16.672281,79.608467 
	C15.748520,80.211655 14.766402,80.265785 14.621533,80.642166 
	C13.677601,83.094566 12.915337,85.616890 11.819279,88.950920 
	C11.906426,89.073662 12.829846,90.374283 14.069776,92.120689 
	C16.094801,89.504463 17.856457,87.228493 19.565002,85.021141 
	C19.933575,85.792198 20.457996,86.889282 20.958790,88.316986 
	C20.871601,92.014297 20.700626,95.382950 20.761957,98.747368 
	C21.152042,120.147148 21.593380,141.545990 22.017830,162.945145 
	C22.334160,166.094131 22.650488,169.243134 22.983452,172.696030 
	C23.000086,172.999939 22.990644,173.009583 22.990646,173.009583 
	C19.444691,175.836975 15.898736,178.664368 11.738132,181.981842 
	C14.405276,182.727570 16.403734,183.286346 18.920780,183.990097 
	C18.125177,186.421188 17.391405,188.663345 16.328815,190.952759 
	C16.000000,191.000000 16.000546,191.000610 15.912930,190.831482 
	C15.550515,190.774689 15.275715,190.887039 15.000458,190.999695 
	C15.000000,191.000000 14.999483,191.000610 14.999483,191.000610 
	C12.793133,191.810150 10.638522,192.956635 8.361551,193.306274 
	C6.934544,193.525406 5.323545,192.546387 3.402990,191.713882 
	C2.340587,188.881882 1.670294,186.440933 1.000000,184.000000 
	C1.000000,170.979111 1.000000,157.958206 1.200301,144.406952 
	C1.267068,143.584381 1.133534,143.292191 1.000000,143.000000 
	C1.000000,122.645775 1.000000,102.291542 1.265241,81.473732 
	C1.753543,80.769775 1.976604,80.529396 2.199666,80.289024 
	C1.799777,80.192680 1.399889,80.096336 1.000000,80.000000 
	C1.000000,78.933327 1.000000,77.866661 1.245806,76.272644 
	C1.327742,75.163528 1.163871,74.581764 1.000000,74.000000 
	C1.000000,72.933327 1.000000,71.866661 1.257073,70.289772 
	C2.006307,69.515671 2.498470,69.251785 2.990632,68.987900 
	C4.065626,69.991669 5.140621,70.995445 6.580313,72.340485 
	C7.534127,74.358986 8.004670,76.098495 8.822622,77.655510 
	C8.968349,77.932899 11.087555,77.769913 11.385942,77.268745 
	C12.766201,74.950439 13.825373,72.440979 14.999581,70.000000 
M10.482189,91.588127 
	C10.482189,91.588127 10.415726,91.476547 10.482189,91.588127 
z"/>
<path fill="#187A7A" opacity="1.000000" stroke="none" 
	d="
M599.000000,206.536819 
	C598.116821,207.744202 596.966797,208.324631 596.393494,209.258972 
	C592.429260,215.720093 586.692139,218.821884 579.155884,219.028824 
	C571.141235,219.248901 563.233093,219.301102 556.544739,213.823059 
	C551.687988,209.845184 549.372437,204.726639 549.034485,198.239563 
	C554.419434,198.239563 559.367737,198.239563 564.297485,198.239563 
	C567.344421,205.468109 570.373291,207.350494 578.188721,205.816940 
	C580.221375,205.418076 581.870544,203.064850 583.695862,201.609268 
	C582.324158,200.032288 581.251709,197.722015 579.524170,197.017120 
	C574.532410,194.980255 569.241089,193.693100 564.132629,191.923172 
	C554.694641,188.653137 549.798157,182.495605 550.000732,174.414398 
	C550.193542,166.721786 555.945984,159.470245 565.061646,157.683853 
	C573.445374,156.040894 582.544983,155.205368 589.735962,161.146164 
	C593.390259,164.165207 595.456604,169.106491 598.620361,173.089401 
	C599.000000,174.388885 599.000000,175.777786 598.539673,177.487671 
	C593.276001,177.808670 588.472656,177.808670 583.479980,177.808670 
	C582.208923,172.445221 579.119019,169.635773 573.289612,169.917145 
	C569.290222,170.110214 566.115784,170.841187 564.807800,176.673874 
	C569.066345,178.402771 573.390808,180.527161 577.939087,181.922256 
	C585.569580,184.262756 593.158447,186.434799 597.666199,193.867950 
	C597.805237,194.097244 598.541931,193.964142 599.000000,194.000000 
	C599.000000,198.024551 599.000000,202.049088 599.000000,206.536819 
z"/>
<path fill="#FEFEFE" opacity="1.000000" stroke="none" 
	d="
M1.000000,184.468658 
	C1.670294,186.440933 2.340587,188.881882 3.095588,191.659180 
	C3.364352,203.100021 7.972259,212.719696 13.687197,221.811768 
	C16.802420,226.767868 20.333887,231.625229 24.453650,235.752502 
	C32.569233,243.882919 41.715687,250.750931 53.187054,255.224701 
	C56.413902,256.327423 58.986649,257.375397 61.657604,258.010101 
	C66.407036,259.138702 71.215965,260.016998 76.000000,261.000000 
	C51.072163,261.000000 26.144323,261.000000 1.000000,261.000000 
	C1.000000,235.646179 1.000000,210.291748 1.000000,184.468658 
z"/>
<path fill="#FEFEFE" opacity="1.000000" stroke="none" 
	d="
M16.251694,29.998199 
	C13.169776,35.423264 10.087860,40.848328 6.686868,46.791328 
	C6.198890,48.198013 6.029987,49.086761 5.861084,49.975510 
	C5.861084,49.975510 5.953128,49.969830 5.628451,50.133698 
	C3.869183,55.865044 2.434591,61.432522 1.000000,67.000000 
	C1.000000,45.061470 1.000000,23.122942 1.000000,1.000000 
	C31.020643,1.000000 61.041664,1.000000 91.353386,1.401882 
	C82.108147,1.938953 72.572205,2.074142 63.036263,2.209330 
	C53.420403,2.927876 44.975109,7.093836 36.566654,11.305213 
	C35.310406,11.934404 34.368885,13.191983 32.705681,14.432125 
	C27.380152,19.101145 22.630711,23.496899 17.625513,28.010056 
	C16.997070,28.751041 16.624382,29.374620 16.251694,29.998199 
z"/>
<path fill="#000000" opacity="1.000000" stroke="none" 
	d="
M599.000000,193.533142 
	C598.541931,193.964142 597.805237,194.097244 597.666199,193.867950 
	C593.158447,186.434799 585.569580,184.262756 577.939087,181.922256 
	C573.390808,180.527161 569.066345,178.402771 564.807800,176.673874 
	C566.115784,170.841187 569.290222,170.110214 573.289612,169.917145 
	C579.119019,169.635773 582.208923,172.445221 583.479980,177.808670 
	C588.472656,177.808670 593.276001,177.808670 598.539673,177.904327 
	C599.000000,183.022095 599.000000,188.044189 599.000000,193.533142 
z"/>
<path fill="#015559" opacity="1.000000" stroke="none" 
	d="
M63.113766,2.546207 
	C72.572205,2.074142 82.108147,1.938953 91.822044,1.401882 
	C100.020897,1.000000 108.041801,1.000000 116.531349,1.000000 
	C120.226921,1.410310 123.453850,1.820621 126.883759,2.601134 
	C108.134972,2.983667 89.183197,3.000489 70.231415,3.002594 
	C67.884705,3.002855 65.537987,2.924833 63.113766,2.546207 
z"/>
<path fill="#086D6E" opacity="1.000000" stroke="none" 
	d="
M77.982849,259.020874 
	C79.309395,259.013123 80.635948,258.998871 81.962502,258.998627 
	C92.243515,258.996735 102.524529,258.997589 113.730606,258.997589 
	C112.501564,259.777679 111.938187,260.135254 111.187408,260.746399 
	C100.645775,261.000000 90.291542,261.000000 79.359528,260.743408 
	C78.515434,259.998138 78.249138,259.509521 77.982849,259.020874 
z"/>
<path fill="#105F60" opacity="1.000000" stroke="none" 
	d="
M77.542480,259.014160 
	C78.249138,259.509521 78.515434,259.998138 78.890869,260.743408 
	C78.250000,261.000000 77.500000,261.000000 76.375000,261.000000 
	C71.215965,260.016998 66.407036,259.138702 61.657604,258.010101 
	C58.986649,257.375397 56.413902,256.327423 53.573223,255.204712 
	C58.985058,256.041321 64.611458,257.189178 70.260590,258.211548 
	C72.515274,258.619568 74.820114,258.750427 77.542480,259.014160 
z"/>
<path fill="#0E6063" opacity="1.000000" stroke="none" 
	d="
M1.000000,67.375000 
	C2.434591,61.432522 3.869183,55.865044 5.616970,50.089043 
	C4.954713,55.963017 3.979261,62.045521 2.997220,68.557961 
	C2.498470,69.251785 2.006307,69.515671 1.257073,69.889778 
	C1.000000,69.250000 1.000000,68.500000 1.000000,67.375000 
z"/>
<path fill="#013E44" opacity="1.000000" stroke="none" 
	d="
M1.000000,74.333328 
	C1.163871,74.581764 1.327742,75.163528 1.245806,75.872650 
	C1.000000,75.555557 1.000000,75.111107 1.000000,74.333328 
z"/>
<path fill="#013E44" opacity="1.000000" stroke="none" 
	d="
M1.000000,80.250000 
	C1.399889,80.096336 1.799777,80.192680 2.199666,80.289024 
	C1.976604,80.529396 1.753543,80.769775 1.265241,81.005074 
	C1.000000,81.000000 1.000000,80.500000 1.000000,80.250000 
z"/>
<path fill="#013E44" opacity="1.000000" stroke="none" 
	d="
M1.000000,143.250000 
	C1.133534,143.292191 1.267068,143.584381 1.200301,143.938293 
	C1.000000,144.000000 1.000000,143.500000 1.000000,143.250000 
z"/>
<path fill="#187A7A" opacity="1.000000" stroke="none" 
	d="
M419.250366,246.548874 
	C413.989014,246.888992 408.937988,246.934128 403.423401,246.911575 
	C395.600952,244.433487 388.126587,242.062683 384.185242,234.588806 
	C382.572815,231.531174 381.693817,228.086761 380.180725,224.008514 
	C385.568970,224.008514 389.708710,223.878082 393.829865,224.097244 
	C394.903564,224.154327 396.260834,225.062317 396.907440,225.985840 
	C401.865662,233.067886 407.823975,235.299026 415.984619,232.919510 
	C422.242706,231.094742 426.047760,225.073547 425.994293,217.050201 
	C425.986847,215.935104 425.902069,214.820511 425.816132,212.863556 
	C417.029358,219.807907 407.535675,220.414322 397.742920,217.967499 
	C391.377045,216.376923 386.672638,212.013092 383.379791,206.593231 
	C375.514191,193.646881 376.391663,176.593018 386.762390,164.791626 
	C394.330597,156.179352 410.824860,153.002853 425.738434,162.488937 
	C425.953003,161.010178 426.149048,159.658905 426.353729,158.248108 
	C431.215912,158.248108 435.816284,158.248108 440.734589,158.248108 
	C440.833679,159.586685 440.987823,160.705215 440.988678,161.823883 
	C441.003601,181.145432 441.479889,200.482849 440.842072,219.783325 
	C440.364990,234.220581 433.031647,243.152802 419.250366,246.548874 
M403.992889,171.068893 
	C396.123230,175.093262 393.297638,181.634949 393.957672,190.242584 
	C394.864868,202.074417 406.437164,209.334885 416.546722,204.123413 
	C422.143768,201.238159 424.779877,196.106232 425.752716,190.244675 
	C426.873474,183.491486 424.054932,177.916412 419.018097,173.597031 
	C414.892548,170.059143 410.081238,168.838882 403.992889,171.068893 
z"/>
<path fill="#187A7A" opacity="1.000000" stroke="none" 
	d="
M338.245728,47.437378 
	C344.881592,30.812225 365.309479,25.503569 382.737854,36.530811 
	C382.947510,35.033161 383.135681,33.689102 383.341248,32.220688 
	C388.155548,32.220688 392.757599,32.220688 398.000000,32.220688 
	C398.000000,34.202168 398.000000,35.971798 398.000000,37.741428 
	C398.000000,55.717533 397.939728,73.693901 398.017151,91.669670 
	C398.092926,109.258461 386.460693,121.352036 368.771942,121.074074 
	C357.689423,120.899910 347.704315,118.720779 341.330475,108.709457 
	C339.476959,105.798210 338.699921,102.201622 337.082031,98.021675 
	C342.576630,98.021675 346.860504,97.884361 351.123444,98.121986 
	C352.139832,98.178635 353.383148,99.291573 354.017181,100.252014 
	C358.275574,106.702530 364.859497,109.114220 372.762115,106.941162 
	C378.895813,105.254524 382.942719,99.266777 382.998535,91.787857 
	C383.008423,90.462753 382.999939,89.137527 382.999939,87.377434 
	C381.674225,87.960106 380.608673,88.287453 379.689850,88.853081 
	C361.965424,99.764053 338.562469,90.362488 335.785553,67.479568 
	C334.933289,60.456470 335.809418,54.172840 338.245728,47.437378 
M360.521667,78.158493 
	C363.805817,78.521461 367.253357,79.704094 370.342346,79.088234 
	C378.449463,77.471901 381.703003,70.998405 382.815155,63.688259 
	C383.903595,56.534065 380.453156,50.677979 374.836914,46.583267 
	C370.505341,43.425217 365.182800,42.746872 360.315094,45.434872 
	C354.728577,48.519821 351.014038,53.136307 350.974243,60.031528 
	C350.931061,67.514442 352.320892,74.194069 360.521667,78.158493 
z"/>
<path fill="#187A7A" opacity="1.000000" stroke="none" 
	d="
M447.556580,89.740372 
	C434.856781,96.190170 419.788788,93.544128 412.538940,84.863487 
	C400.852722,70.870987 401.837311,52.046200 412.177704,39.423763 
	C419.185150,30.869896 435.065399,26.349943 451.771637,36.395283 
	C451.937714,35.055279 452.094727,33.788315 452.283752,32.262974 
	C456.955780,32.262974 461.567261,32.262974 466.669250,32.262974 
	C466.777344,33.647560 466.983490,35.072475 466.985352,36.497662 
	C467.007812,53.497307 466.857056,70.499001 467.095551,87.495323 
	C467.159027,92.019753 465.571777,93.573692 461.306061,93.022423 
	C460.158569,92.874123 458.961273,92.881523 457.811615,93.021355 
	C453.748535,93.515541 451.188263,92.393204 452.084656,86.919571 
	C450.289215,88.044861 449.087280,88.798180 447.556580,89.740372 
M450.653564,68.761337 
	C451.016388,67.333298 451.500275,65.923737 451.721527,64.474091 
	C452.794342,57.444969 450.019073,51.807747 444.824005,47.421345 
	C440.672974,43.916447 435.761200,42.862160 430.524414,45.010693 
	C425.193634,47.197788 419.330292,52.638390 419.916901,62.715408 
	C420.404175,71.086021 425.277252,78.180679 432.981873,79.844269 
	C437.943695,80.915619 446.380188,78.712349 450.653564,68.761337 
z"/>
<path fill="#187A7A" opacity="1.000000" stroke="none" 
	d="
M212.442307,78.216904 
	C212.111481,75.315453 212.066635,72.591545 212.545685,69.428970 
	C216.228790,68.993576 219.398300,69.156715 222.544327,68.954544 
	C225.606140,68.757790 227.127014,69.668854 228.177032,72.867531 
	C230.729355,80.642754 241.728088,82.697571 247.685333,76.809258 
	C251.936920,72.606888 251.495422,66.961685 246.234161,64.194168 
	C242.652344,62.310051 238.664886,61.012791 234.713150,60.052593 
	C225.005264,57.693764 216.146088,54.360462 212.155273,44.042252 
	C212.110580,40.319408 212.065887,36.596569 212.377472,32.220352 
	C214.595261,24.341400 219.356018,19.784506 226.225006,17.436853 
	C229.362488,16.364536 232.706665,15.896939 235.957092,15.155075 
	C237.372375,15.110405 238.787643,15.065735 240.621735,15.088531 
	C246.469711,17.138489 252.373596,18.346434 257.203552,21.306623 
	C262.786255,24.728142 264.603149,30.936384 265.012573,37.991150 
	C260.103088,37.991150 255.633911,38.187046 251.203842,37.857468 
	C250.053925,37.771919 248.655487,36.243092 248.004837,35.035721 
	C244.685638,28.876606 235.440613,26.750820 229.976959,31.046110 
	C225.391449,34.651043 226.109116,40.986721 231.996994,43.854843 
	C236.662598,46.127567 241.924423,47.141285 246.793274,49.042412 
	C251.028641,50.696190 255.776169,52.006744 259.094513,54.865314 
	C270.664490,64.832161 266.815918,85.393898 252.420364,90.676804 
	C240.887772,94.909042 229.331940,94.744804 219.130127,86.893723 
	C216.420609,84.808533 214.831711,81.267197 212.442307,78.216904 
z"/>
<path fill="#187A7A" opacity="1.000000" stroke="none" 
	d="
M484.630798,171.019958 
	C476.234924,167.803787 466.278534,171.776260 466.028748,186.703537 
	C465.875519,195.860992 465.866486,205.025970 466.064514,214.181702 
	C466.145264,217.916092 464.804657,219.140686 461.127136,219.059067 
	C449.350983,218.797760 451.056305,220.235413 451.020203,208.947571 
	C450.950928,187.296844 451.147156,165.643997 450.889282,143.996124 
	C450.830017,139.020020 452.507263,137.437180 457.197906,137.948517 
	C459.823395,138.234741 462.505676,138.000015 465.643646,138.000015 
	C465.643646,145.789124 465.643646,153.364777 465.643646,162.258484 
	C472.039734,157.271133 478.560028,157.029037 485.314758,156.888123 
	C498.306519,156.617111 507.082336,168.725906 507.018127,178.603760 
	C506.941223,190.428009 506.896973,202.254562 507.061523,214.077026 
	C507.111908,217.695587 506.023926,219.147293 502.232300,219.062012 
	C490.346558,218.794678 492.104767,220.217270 492.013428,209.052765 
	C491.945282,200.726028 491.747803,192.388077 492.084930,184.074463 
	C492.326691,178.112991 490.152618,173.902740 484.630798,171.019958 
z"/>
<path fill="#187A7A" opacity="1.000000" stroke="none" 
	d="
M262.739471,157.184128 
	C270.913574,156.917389 278.651154,156.217224 285.424164,161.631958 
	C290.528839,165.712982 293.639923,170.874222 293.864502,177.083633 
	C294.315613,189.554977 293.903625,202.055267 294.058258,214.541016 
	C294.103088,218.161118 292.593292,219.105057 289.270721,219.045532 
	C277.352051,218.831924 279.099121,220.215561 279.013977,209.095581 
	C278.945129,200.104996 279.030365,191.113327 278.989960,182.122391 
	C278.959747,175.397629 274.066467,170.373779 267.293701,170.002609 
	C260.353546,169.622238 254.572983,173.744537 254.111465,180.460388 
	C253.362411,191.360168 253.063904,202.310928 253.125031,213.237076 
	C253.151596,217.983444 251.597610,219.239792 247.075058,219.089539 
	C236.919724,218.752167 238.026337,219.991150 238.007477,209.900223 
	C237.978867,194.582092 238.000000,179.263855 238.000000,163.945663 
	C238.000000,162.156754 238.000000,160.367828 238.000000,157.866043 
	C243.539047,159.083572 249.280167,155.752991 254.314636,160.799637 
	C256.344482,159.912949 259.333435,158.607315 262.739471,157.184128 
z"/>
<path fill="#187A7A" opacity="1.000000" stroke="none" 
	d="
M273.000000,41.046505 
	C273.000000,37.921455 273.000000,35.289532 273.000000,32.331253 
	C277.996704,32.331253 282.582184,32.331253 287.999939,32.331253 
	C287.999939,33.827785 287.999939,35.405838 287.999939,36.983891 
	C287.999939,46.475861 287.996735,55.967831 288.000946,65.459801 
	C288.004730,73.953064 292.971069,79.860329 300.214264,79.998779 
	C308.244751,80.152283 313.772675,74.665245 313.954926,65.900955 
	C314.148773,56.579533 313.999481,47.250973 314.000000,37.925526 
	C314.000092,36.138222 314.000000,34.350914 314.000000,32.285095 
	C319.092743,32.285095 323.678192,32.285095 329.000000,32.285095 
	C329.000000,34.097713 329.000000,35.855579 329.000000,37.613445 
	C329.000000,53.599922 329.000549,69.586395 328.999756,85.572876 
	C328.999390,92.998024 328.998199,92.998070 321.744019,92.999954 
	C320.744873,93.000214 319.735870,92.909225 318.748352,93.016266 
	C315.465881,93.372086 313.487457,92.301033 313.978027,88.163414 
	C306.537781,93.380188 298.831604,93.525444 290.519989,92.375648 
	C280.869263,91.040604 273.017487,79.547638 273.003296,70.015678 
	C272.989166,60.523682 273.000061,51.031647 273.000000,41.046505 
z"/>
<path fill="#187A7A" opacity="1.000000" stroke="none" 
	d="
M342.526611,215.757996 
	C330.921509,220.599274 319.904144,221.272644 309.246887,214.104950 
	C303.699951,210.374268 301.605011,205.012756 300.994995,198.330200 
	C306.205383,198.330200 311.131805,198.330200 316.133972,198.330200 
	C319.756775,205.630402 322.836273,207.507523 330.398254,205.803085 
	C332.424683,205.346313 334.011078,202.937271 335.799469,201.424438 
	C334.486206,199.935883 333.455200,197.745590 331.809448,197.083603 
	C325.586151,194.580231 318.988770,192.970947 312.857971,190.282379 
	C304.581757,186.652939 300.985657,180.260574 302.027191,172.722824 
	C303.007233,165.629669 310.844116,157.703842 318.625122,157.172012 
	C326.611176,156.626160 334.936157,155.730515 342.044891,161.027313 
	C347.550903,165.129929 350.085846,170.639969 349.859192,177.767395 
	C345.001129,177.767395 340.542328,177.767395 335.633087,177.767395 
	C334.208710,171.718246 329.994507,168.831039 323.752808,170.160400 
	C321.391907,170.663223 319.411163,172.950897 317.257141,174.424988 
	C318.852203,176.124207 320.141022,178.555481 322.103455,179.376373 
	C326.770813,181.328720 331.849396,182.275726 336.590881,184.078568 
	C342.659973,186.386215 348.313660,189.145630 350.114380,196.504669 
	C352.128937,204.737778 348.521973,210.460068 342.526611,215.757996 
z"/>
<path fill="#187A7A" opacity="1.000000" stroke="none" 
	d="
M538.196045,204.999878 
	C540.970093,205.464172 545.050354,205.479431 545.304932,206.473999 
	C546.180725,209.895493 545.878418,213.670975 545.617798,217.282181 
	C545.571472,217.923889 543.559509,218.944244 542.489807,218.902542 
	C537.550110,218.710052 532.524902,218.680420 527.714722,217.693710 
	C521.213135,216.360062 517.080383,209.545959 517.017822,201.107773 
	C516.942688,190.973373 517.000061,180.837982 517.000061,170.793427 
	C509.306885,169.006638 509.306885,169.006638 510.358429,158.378464 
	C512.333557,158.153870 514.393372,157.919647 517.005737,157.622604 
	C517.005737,153.915421 516.690369,150.254501 517.166321,146.699524 
	C517.347778,145.344254 519.223450,143.357925 520.536072,143.177109 
	C524.096619,142.686691 527.769165,143.008911 532.000000,143.008911 
	C532.000000,145.730133 532.000000,148.004807 532.000000,150.279495 
	C532.000000,152.594025 532.000000,154.908554 532.000000,157.857559 
	C536.662170,157.857559 541.044556,157.857559 545.706848,157.857559 
	C545.706848,162.073044 545.706848,165.661346 545.706848,169.888412 
	C541.311768,169.888412 536.926758,169.888412 532.036621,169.888412 
	C532.036621,180.457367 531.893555,190.403900 532.120117,200.341995 
	C532.192078,203.498459 534.125061,205.557358 538.196045,204.999878 
z"/>
<path fill="#187A7A" opacity="1.000000" stroke="none" 
	d="
M477.000000,65.000000 
	C477.000000,53.883686 477.000000,43.267372 477.000000,32.328156 
	C482.000854,32.328156 486.583405,32.328156 491.571686,32.328156 
	C491.792664,33.538658 492.042847,34.908958 492.381989,36.766861 
	C497.218384,31.779581 502.883881,30.018835 509.985138,31.469534 
	C509.985138,35.283401 510.258911,39.098705 509.823639,42.831314 
	C509.687347,43.999760 507.637817,45.855137 506.468292,45.851913 
	C495.060638,45.820473 492.540680,51.979958 492.086823,61.730160 
	C491.677185,70.530197 491.863831,79.367424 492.064148,88.181953 
	C492.148865,91.909340 490.812073,93.140472 487.134399,93.059082 
	C475.357330,92.798454 477.123535,94.231644 477.010284,82.971664 
	C476.951721,77.148338 477.000000,71.323921 477.000000,65.000000 
z"/>
<path fill="#187A7A" opacity="1.000000" stroke="none" 
	d="
M219.113815,219.000000 
	C214.350876,219.624695 212.865967,217.937424 212.907455,213.467285 
	C213.111374,191.494247 213.110321,169.517258 212.908096,147.544189 
	C212.867096,143.089355 214.311661,141.786270 218.642319,141.917358 
	C229.172379,142.236115 227.973282,140.929276 227.990463,151.314453 
	C228.023270,171.125122 228.000092,190.935898 227.999954,210.746628 
	C227.999893,218.998718 227.999664,218.998718 219.113815,219.000000 
z"/>
<path fill="#187A7A" opacity="1.000000" stroke="none" 
	d="
M372.000000,188.000000 
	C371.999695,197.140259 371.885620,205.782761 372.054871,214.419693 
	C372.122986,217.894226 370.867157,219.117645 367.407959,219.050293 
	C355.231750,218.813217 357.085449,220.292526 357.020569,208.773666 
	C356.936371,193.819839 357.000000,178.865173 357.000000,163.910873 
	C357.000000,162.127823 357.000000,160.344788 357.000000,158.284195 
	C362.086975,158.284195 366.665314,158.284195 372.000000,158.284195 
	C372.000000,168.039856 372.000000,177.769928 372.000000,188.000000 
z"/>
<path fill="#187A7A" opacity="1.000000" stroke="none" 
	d="
M373.805115,140.673904 
	C374.578644,145.550919 373.585907,149.837296 369.327240,151.590652 
	C366.688995,152.676865 362.876007,152.410614 360.115662,151.364838 
	C355.389038,149.574142 355.249329,144.916626 356.284271,140.836700 
	C357.219910,137.148254 359.684662,134.879898 364.227783,134.851685 
	C368.761353,134.823532 371.933319,136.014359 373.805115,140.673904 
z"/>
<path fill="#000000" opacity="1.000000" stroke="none" 
	d="
M212.083313,44.504738 
	C216.146088,54.360462 225.005264,57.693764 234.713150,60.052593 
	C238.664886,61.012791 242.652344,62.310051 246.234161,64.194168 
	C251.495422,66.961685 251.936920,72.606888 247.685333,76.809258 
	C241.728088,82.697571 230.729355,80.642754 228.177032,72.867531 
	C227.127014,69.668854 225.606140,68.757790 222.544327,68.954544 
	C219.398300,69.156715 216.228790,68.993576 212.613724,68.978867 
	C212.109039,60.967358 212.060196,52.967293 212.083313,44.504738 
z"/>
<path fill="#1C7677" opacity="1.000000" stroke="none" 
	d="
M186.881470,198.591171 
	C185.649765,198.508575 184.489594,198.022705 183.138840,197.457031 
	C186.317047,193.230164 187.490936,189.370972 186.502930,184.131989 
	C185.597092,179.328690 187.211136,174.050140 187.744827,168.679703 
	C186.431671,168.311020 185.067505,167.928024 183.674820,167.537018 
	C183.674820,167.221237 183.554688,166.840317 183.693924,166.637253 
	C184.760757,165.081467 186.664154,163.632996 186.814041,162.012985 
	C187.115036,158.760056 186.298782,155.421356 186.259506,152.114319 
	C186.221359,148.902100 186.698776,145.686722 186.739059,142.470078 
	C186.845398,133.977631 186.939651,125.482002 186.793121,116.991875 
	C186.761932,115.183746 185.689026,113.393600 184.998642,111.299828 
	C188.608246,106.050896 188.982330,99.743378 186.497711,97.917038 
	C186.749481,93.887352 186.928574,90.482376 187.185089,87.083229 
	C187.395370,84.296654 188.066315,81.491364 187.874786,78.740196 
	C187.570816,74.373505 186.650009,70.052681 186.159164,65.693420 
	C186.069565,64.897682 186.786224,64.011154 187.480011,63.086281 
	C188.493652,66.171303 189.722076,69.334076 189.736160,72.502251 
	C189.899750,109.277565 189.994705,146.054382 189.776962,182.828827 
	C189.746628,187.953903 187.938293,193.068481 186.881470,198.591171 
z"/>
<path fill="#000000" opacity="1.000000" stroke="none" 
	d="
M235.494659,15.083206 
	C232.706665,15.896939 229.362488,16.364536 226.225006,17.436853 
	C219.356018,19.784506 214.595261,24.341400 212.443924,31.760139 
	C212.154068,26.484512 212.154068,21.015730 212.154068,15.011336 
	C219.831619,15.011336 227.431931,15.011336 235.494659,15.083206 
z"/>
<path fill="#196869" opacity="1.000000" stroke="none" 
	d="
M121.413208,259.779663 
	C121.217247,259.324036 121.321854,258.560699 121.621559,258.474335 
	C127.903679,256.663696 134.207840,254.929642 140.886292,253.351318 
	C134.778152,255.610489 128.291397,257.698853 121.413208,259.779663 
z"/>
<path fill="#196869" opacity="1.000000" stroke="none" 
	d="
M141.741852,253.422974 
	C142.091080,253.038406 142.729141,252.534302 143.739273,252.049484 
	C143.417801,252.480331 142.724258,252.891891 141.741852,253.422974 
z"/>
<path fill="#196869" opacity="1.000000" stroke="none" 
	d="
M144.334488,252.075775 
	C144.485367,251.770355 144.938370,251.421341 145.697510,251.049225 
	C145.547989,251.361481 145.092300,251.696823 144.334488,252.075775 
z"/>
<path fill="#FFFFFF" opacity="1.000000" stroke="none" 
	d="
M22.824921,76.025940 
	C22.891146,75.572304 22.957371,75.118675 23.021036,73.935104 
	C25.162289,66.906921 27.306099,60.608669 29.449909,54.310421 
	C29.449911,54.310421 29.340240,54.157982 29.581207,54.088219 
	C29.984098,53.601448 30.146021,53.184444 30.307945,52.767441 
	C34.805172,48.405807 39.302399,44.044170 44.200485,39.296078 
	C44.782394,38.635887 44.963444,38.362152 45.144489,38.088417 
	C45.144489,38.088417 45.048477,38.067657 45.391079,38.059647 
	C46.896465,37.426033 48.059250,36.800434 49.222034,36.174831 
	C49.222034,36.174831 49.087944,36.137062 49.401077,36.146965 
	C50.243584,35.885422 50.772953,35.613972 51.302326,35.342522 
	C51.302326,35.342522 51.175385,35.345352 51.589096,35.286251 
	C55.271652,34.139370 58.540493,33.051590 61.809338,31.963810 
	C63.260899,31.976685 64.712463,31.989559 67.054428,31.982391 
	C77.963089,31.926405 87.981346,31.890463 98.463425,31.926193 
	C111.279366,32.604733 123.631493,33.211601 135.983612,33.818466 
	C142.747803,36.465519 149.647461,39.031704 154.336029,44.935371 
	C157.447830,48.853626 160.000259,53.216129 162.973099,58.063377 
	C164.076294,60.866154 165.009491,62.985325 165.942688,65.104492 
	C165.942688,65.104492 165.965576,65.028816 165.959503,65.448326 
	C166.301865,68.121132 166.901596,70.368118 166.958374,72.628738 
	C167.358398,88.557480 167.849472,104.488297 167.905945,120.419891 
	C167.950348,132.946762 167.414291,145.475693 167.060791,158.387314 
	C165.617020,163.162338 164.248550,167.553741 162.880081,171.945160 
	C162.880081,171.945160 162.961533,171.963181 162.684296,172.086578 
	C162.225403,172.798798 162.043747,173.387619 161.862106,173.976456 
	C161.862106,173.976456 161.960098,173.970657 161.664520,174.082520 
	C161.068832,174.771088 160.768723,175.347794 160.468628,175.924515 
	C159.737747,177.078278 159.006851,178.232040 157.783447,179.717773 
	C156.245026,181.366226 155.199127,182.682693 154.040924,184.283661 
	C152.897964,185.159271 151.867294,185.750351 150.496460,186.483917 
	C147.052628,189.748917 143.525528,192.029221 139.026718,192.630463 
	C138.063675,192.759171 137.190704,193.561615 136.276245,194.053696 
	C135.072571,194.098602 133.868927,194.143524 131.894073,194.183228 
	C129.504044,194.448975 127.885307,194.954819 126.266350,194.955551 
	C103.189980,194.966019 80.113579,194.908188 57.037186,194.866837 
	C53.951290,194.008499 50.865395,193.150162 47.315292,191.783966 
	C43.915386,189.822144 40.979687,188.368195 38.043983,186.914261 
	C31.527929,180.293610 26.818220,172.574738 23.920216,162.947784 
	C23.537251,159.439255 23.185692,156.718231 22.906105,153.537674 
	C22.909426,148.721313 22.840771,144.364487 22.839056,139.553284 
	C22.861391,135.732834 22.816784,132.366745 22.865089,128.564529 
	C22.884293,125.756897 22.810583,123.385399 22.818901,120.602097 
	C22.859901,118.794716 22.818872,117.399132 22.857704,115.673279 
	C22.883587,114.897186 22.829609,114.451363 22.837540,113.579666 
	C22.852085,111.436081 22.804724,109.718376 22.844501,107.672104 
	C22.873693,106.897827 22.815746,106.452103 22.828053,105.673981 
	C22.849020,104.893936 22.799736,104.446297 22.845802,103.543900 
	C22.883738,99.063461 22.826326,95.037781 22.833025,90.638123 
	C22.851017,89.508926 22.804897,88.753723 22.855000,87.557175 
	C22.893673,84.414024 22.836126,81.712212 22.848219,78.640900 
	C22.886881,77.522911 22.855902,76.774429 22.824921,76.025940 
M67.973366,114.980095 
	C67.973366,114.980095 67.944023,114.876755 67.336037,115.319328 
	C66.842827,117.549347 66.349617,119.779358 65.971283,121.985016 
	C65.971283,121.985016 65.937088,121.872665 65.213219,122.361801 
	C65.468681,126.937851 65.724136,131.513901 66.013229,136.848190 
	C69.977020,148.666000 77.380707,156.278610 90.068130,159.240021 
	C104.018997,162.496338 119.196014,154.462143 124.857368,141.199326 
	C130.039978,129.058060 125.737488,117.979881 120.022270,107.573036 
	C114.788292,98.042465 108.419357,89.131660 102.482307,79.992088 
	C99.190826,74.925140 92.241508,73.771080 89.741936,77.881012 
	C82.747131,89.382240 75.863602,100.951157 68.369362,112.931953 
	C68.202133,113.621063 68.034904,114.310173 67.973366,114.980095 
z"/>
<path fill="#FEFEFE" opacity="1.000000" stroke="none" 
	d="
M109.929657,219.051270 
	C113.622032,220.440323 117.610413,221.956146 117.826660,226.506180 
	C117.995064,230.049561 118.182655,234.221466 112.861633,236.018677 
	C101.043762,235.849609 90.059410,235.682953 79.075058,235.516296 
	C73.449554,231.103210 72.205940,227.166901 75.503067,222.838196 
	C76.545845,221.469147 78.595551,220.867081 80.865982,219.751419 
	C91.008232,219.409637 100.468941,219.230453 109.929657,219.051270 
z"/>
<path fill="#147374" opacity="1.000000" stroke="none" 
	d="
M37.830917,187.189850 
	C40.979687,188.368195 43.915386,189.822144 46.995861,191.612915 
	C45.332626,193.591873 43.524616,195.234009 41.217049,197.329880 
	C46.823051,199.992981 45.114616,203.060074 42.022434,206.657822 
	C43.767624,206.094711 44.635586,205.814651 45.503551,205.534592 
	C41.772957,208.959686 40.143314,212.369141 44.789612,216.995667 
	C43.263344,216.995667 42.477501,216.995667 41.292881,216.854080 
	C40.805771,216.663651 40.717438,216.614807 40.629108,216.565979 
	C40.749992,216.712799 40.870869,216.859634 40.991745,217.006485 
	C40.288494,218.945541 39.585239,220.884598 38.881985,222.823654 
	C38.411858,222.770569 37.941734,222.717484 37.471607,222.664398 
	C38.331913,217.963913 36.912449,214.618118 31.603472,212.904343 
	C32.559608,210.394379 33.503513,207.916534 34.551533,205.165375 
	C33.748482,204.822540 32.317955,204.211823 30.662729,203.505173 
	C31.061325,197.882721 31.464405,192.196991 31.847614,186.791565 
	C34.356529,187.084564 35.987190,187.275009 37.830917,187.189850 
z"/>
<path fill="#167778" opacity="1.000000" stroke="none" 
	d="
M154.153229,183.999146 
	C155.199127,182.682693 156.245026,181.366226 157.630234,179.981049 
	C155.838974,184.740005 161.475830,183.537262 162.811569,186.151489 
	C161.332870,187.749786 158.847748,189.248154 158.569351,191.081604 
	C158.307816,192.804138 160.377106,194.880569 161.420837,196.801285 
	C161.059265,197.058746 160.697678,197.316208 160.336105,197.573654 
	C159.129791,196.899017 157.923477,196.224380 156.648026,195.511078 
	C154.539810,199.433746 153.599564,202.862335 158.764435,204.911133 
	C155.948990,205.757553 153.384247,206.528595 150.819504,207.299637 
	C150.942657,207.644775 151.065811,207.989899 151.188965,208.335037 
	C149.698105,207.890274 148.207230,207.445496 146.357727,206.666779 
	C145.999191,205.888855 145.999283,205.444855 146.225708,204.855179 
	C146.300293,204.139709 146.148544,203.569931 145.747620,203.000076 
	C145.498413,203.000000 145.000000,203.000000 144.705353,202.872742 
	C143.273407,201.831055 142.136093,200.916611 140.999390,200.001083 
	C141.000000,200.000000 140.997559,200.001221 140.997559,200.001221 
	C139.600403,198.134811 138.203262,196.268402 136.541168,194.227844 
	C137.190704,193.561615 138.063675,192.759171 139.026718,192.630463 
	C143.525528,192.029221 147.052628,189.748917 150.519043,186.830750 
	C150.881805,188.854767 150.881805,190.674438 150.881805,192.987473 
	C152.767197,190.233398 154.138519,188.557571 155.076477,186.666794 
	C155.369705,186.075714 154.493896,184.904694 154.153229,183.999146 
z"/>
<path fill="#157374" opacity="1.000000" stroke="none" 
	d="
M17.881268,27.892653 
	C22.630711,23.496899 27.380152,19.101145 32.505474,14.705996 
	C34.221077,15.701276 37.393925,14.816277 36.301384,18.437243 
	C36.076511,19.182518 38.224922,20.643873 39.444756,21.952528 
	C38.105968,23.137896 36.928600,25.030762 35.387714,25.397896 
	C28.603411,27.014330 26.507690,31.976912 25.463589,37.981293 
	C25.210657,39.435833 24.555790,40.820477 24.042873,42.618629 
	C24.000000,43.000000 23.998697,43.000969 23.998697,43.000969 
	C21.556665,41.844543 18.235312,41.479706 18.756977,37.552006 
	C18.910494,36.396152 19.461340,35.293076 19.833601,34.155087 
	C19.347723,33.242931 18.674021,31.978163 18.000839,30.356026 
	C18.001360,29.998657 18.008944,29.991121 18.352497,29.989647 
	C19.303520,29.633768 19.910992,29.279364 20.518463,28.924957 
	C19.699749,28.637613 18.881037,28.350271 18.017460,28.019934 
	C17.972595,27.976938 17.881268,27.892653 17.881268,27.892653 
z"/>
<path fill="#147475" opacity="1.000000" stroke="none" 
	d="
M145.000000,203.000000 
	C145.000000,203.000000 145.498413,203.000000 145.747711,203.333527 
	C145.997803,204.111649 145.998596,204.556259 145.999390,205.000870 
	C145.999283,205.444855 145.999191,205.888855 145.998947,206.665802 
	C146.659790,209.670898 147.197830,212.050354 151.140167,211.212769 
	C154.717331,210.452789 157.412918,211.928619 157.899872,215.710510 
	C157.422653,215.560822 156.945435,215.411133 156.468216,215.261444 
	C155.285660,216.315796 154.111221,217.379456 152.918686,218.422394 
	C150.972702,220.124313 149.394775,222.931335 146.137589,220.322433 
	C145.312271,219.661362 144.020187,219.583054 142.350006,219.046692 
	C142.654205,220.244659 142.826416,220.922897 143.049576,221.801758 
	C141.082428,221.801758 139.159546,221.801758 135.816269,221.801758 
	C137.661484,219.212784 139.107574,217.183807 140.553665,215.154816 
	C141.085587,215.407608 141.617493,215.660400 142.149399,215.913193 
	C141.884140,213.549988 141.618866,211.186783 141.353607,208.823578 
	C141.135818,208.848724 140.918030,208.873856 140.700241,208.898987 
	C140.179489,210.533066 139.658752,212.167145 139.138000,213.801224 
	C137.570236,213.047974 136.002472,212.294724 133.904388,211.286697 
	C138.203888,208.448181 132.532959,200.834274 140.635071,200.002716 
	C140.997559,200.001221 141.000000,200.000000 141.000320,200.387466 
	C140.993408,203.925781 142.076187,205.117432 145.000000,203.000000 
M149.410522,213.483032 
	C149.410522,213.483032 149.522095,213.416458 149.410522,213.483032 
M146.591461,212.517014 
	C146.591461,212.517014 146.477676,212.585480 146.591461,212.517014 
M143.407425,209.481155 
	C143.407425,209.481155 143.524033,209.410782 143.407425,209.481155 
M143.409714,207.482498 
	C143.409714,207.482498 143.523407,207.414139 143.409714,207.482498 
z"/>
<path fill="#026062" opacity="1.000000" stroke="none" 
	d="
M22.758778,87.998512 
	C22.804897,88.753723 22.851017,89.508926 22.585205,90.959946 
	C22.432335,95.770065 22.591393,99.884361 22.750454,103.998665 
	C22.799736,104.446297 22.849020,104.893936 22.633202,105.828842 
	C22.497854,106.877640 22.627607,107.439148 22.757362,108.000664 
	C22.804724,109.718376 22.852085,111.436081 22.642508,113.735794 
	C22.516327,114.879723 22.647085,115.441635 22.777843,116.003555 
	C22.818872,117.399132 22.859901,118.794716 22.577639,120.895004 
	C22.426958,124.066696 22.599569,126.533676 22.772179,129.000656 
	C22.816784,132.366745 22.861391,135.732834 22.588627,139.876968 
	C22.458883,145.102417 22.646507,149.549805 22.834133,153.997208 
	C23.185692,156.718231 23.537251,159.439255 23.845009,162.564468 
	C23.404713,162.965820 23.008221,162.962982 22.314777,162.952637 
	C21.593380,141.545990 21.152042,120.147148 20.761957,98.747368 
	C20.700626,95.382950 20.871601,92.014297 20.975067,87.875214 
	C20.990822,84.739548 20.966673,82.376259 20.960970,79.677315 
	C20.982426,78.893585 20.985434,78.445526 20.988441,77.997459 
	C21.397625,77.369019 21.806807,76.740578 22.520454,76.069031 
	C22.855902,76.774429 22.886881,77.522911 22.607872,78.944687 
	C22.451515,82.411484 22.605146,85.205002 22.758778,87.998512 
z"/>
<path fill="#0D6264" opacity="1.000000" stroke="none" 
	d="
M167.136078,158.003708 
	C167.414291,145.475693 167.950348,132.946762 167.905945,120.419891 
	C167.849472,104.488297 167.358398,88.557480 166.958374,72.628738 
	C166.901596,70.368118 166.301865,68.121132 165.920258,65.443726 
	C166.924744,68.721916 168.824661,72.415649 168.861572,76.127907 
	C169.120728,102.196838 169.002701,128.269608 168.966293,154.341064 
	C168.964951,155.301437 168.561264,156.261261 167.961273,157.608521 
	C167.577484,157.995697 167.136093,158.003708 167.136078,158.003708 
z"/>
<path fill="#015558" opacity="1.000000" stroke="none" 
	d="
M57.294315,195.197861 
	C80.113579,194.908188 103.189980,194.966019 126.266350,194.955551 
	C127.885307,194.954819 129.504044,194.448975 131.541046,194.194901 
	C130.946091,194.803101 129.934418,195.907578 128.919632,195.910446 
	C105.438400,195.976913 81.956825,195.925125 58.475349,195.877686 
	C58.167149,195.877075 57.859406,195.650146 57.294315,195.197861 
z"/>
<path fill="#09686A" opacity="1.000000" stroke="none" 
	d="
M135.896301,33.460548 
	C123.631493,33.211601 111.279366,32.604733 98.463570,31.622021 
	C98.000076,30.840988 98.000267,30.435804 98.000458,30.030617 
	C109.932121,30.674114 121.864792,31.300472 133.792847,32.005096 
	C134.484085,32.045929 135.137802,32.722122 135.896301,33.460548 
z"/>
<path fill="#177B7A" opacity="1.000000" stroke="none" 
	d="
M20.942524,80.012978 
	C20.966673,82.376259 20.990822,84.739548 20.998692,87.544601 
	C20.457996,86.889282 19.933575,85.792198 19.565002,85.021141 
	C17.856457,87.228493 16.094801,89.504463 14.069776,92.120689 
	C12.829846,90.374283 11.906426,89.073662 11.819279,88.950920 
	C12.915337,85.616890 13.677601,83.094566 14.621533,80.642166 
	C14.766402,80.265785 15.748520,80.211655 16.672100,80.004265 
	C17.492699,79.738419 17.984617,79.476791 18.897438,79.349983 
	C19.859735,79.660851 20.401131,79.836914 20.942524,80.012978 
z"/>
<path fill="#06696B" opacity="1.000000" stroke="none" 
	d="
M97.531784,30.023373 
	C98.000267,30.435804 98.000076,30.840988 97.999741,31.550346 
	C87.981346,31.890463 77.963089,31.926405 67.481400,31.896713 
	C68.490295,31.220716 69.953049,30.110893 71.436554,30.082432 
	C79.976028,29.918600 88.520409,30.010748 97.531784,30.023373 
z"/>
<path fill="#177B7A" opacity="1.000000" stroke="none" 
	d="
M14.999791,70.000000 
	C13.825373,72.440979 12.766201,74.950439 11.385942,77.268745 
	C11.087555,77.769913 8.968349,77.932899 8.822622,77.655510 
	C8.004670,76.098495 7.534127,74.358986 6.970518,72.343208 
	C6.996026,72.004654 7.000302,71.999786 7.323216,71.959061 
	C8.097421,71.278786 8.548710,70.639236 9.000000,69.999695 
	C9.273877,69.887436 9.547753,69.775177 10.017530,70.050476 
	C10.413217,70.712700 10.675406,70.900017 11.000000,71.000000 
	C11.802926,70.750381 12.605853,70.500771 13.953995,70.126266 
	C14.666219,70.001015 14.833228,70.000664 15.000237,70.000305 
	C15.000237,70.000305 15.000000,70.000000 14.999791,70.000000 
z"/>
<path fill="#0C6062" opacity="1.000000" stroke="none" 
	d="
M29.078812,54.310184 
	C27.306099,60.608669 25.162289,66.906921 22.951977,73.595871 
	C21.501678,66.443977 24.182083,60.103966 29.078812,54.310184 
z"/>
<path fill="#014C4F" opacity="1.000000" stroke="none" 
	d="
M79.271973,235.900024 
	C90.059410,235.682953 101.043762,235.849609 112.488609,236.090240 
	C109.205780,236.442703 105.460503,236.974792 101.719543,236.945999 
	C94.301399,236.888916 86.885628,236.522400 79.271973,235.900024 
z"/>
<path fill="#055458" opacity="1.000000" stroke="none" 
	d="
M110.222244,218.980713 
	C100.468941,219.230453 91.008232,219.409637 81.029892,219.469162 
	C81.369812,218.908463 82.223618,218.092667 83.085449,218.084106 
	C92.216164,217.993286 101.348137,218.030060 110.479759,218.041382 
	C110.605148,218.041534 110.844948,218.209366 110.838387,218.226974 
	C110.750656,218.462204 110.628456,218.684586 110.222244,218.980713 
z"/>
<path fill="#0A5C5E" opacity="1.000000" stroke="none" 
	d="
M167.060791,158.387314 
	C167.136093,158.003708 167.577484,157.995697 167.798416,157.992249 
	C166.552902,162.628525 165.086441,167.268265 163.250031,171.926575 
	C164.248550,167.553741 165.617020,163.162338 167.060791,158.387314 
z"/>
<path fill="#136465" opacity="1.000000" stroke="none" 
	d="
M61.507057,31.853287 
	C58.540493,33.051590 55.271652,34.139370 51.633148,35.331966 
	C53.585194,31.535633 57.635635,32.286823 61.507057,31.853287 
z"/>
<path fill="#0D6264" opacity="1.000000" stroke="none" 
	d="
M165.957306,64.704887 
	C165.009491,62.985325 164.076294,60.866154 163.128845,58.391357 
	C164.067017,60.125584 165.019455,62.215435 165.957306,64.704887 
z"/>
<path fill="#136465" opacity="1.000000" stroke="none" 
	d="
M48.850143,36.117401 
	C48.059250,36.800434 46.896465,37.426033 45.393696,38.108692 
	C46.195225,37.463825 47.336735,36.761898 48.850143,36.117401 
z"/>
<path fill="#157374" opacity="1.000000" stroke="none" 
	d="
M24.000492,42.999535 
	C24.509806,43.433449 25.018629,43.867821 25.527451,44.302197 
	C24.869312,44.605694 24.211174,44.909187 23.553034,45.212681 
	C23.632078,44.649837 23.711123,44.086994 23.894432,43.262558 
	C23.998697,43.000969 24.000000,43.000000 24.000492,42.999535 
z"/>
<path fill="#147576" opacity="1.000000" stroke="none" 
	d="
M8.679600,70.041618 
	C8.548710,70.639236 8.097421,71.278786 7.325511,71.957146 
	C7.456326,71.358490 7.907763,70.721016 8.679600,70.041618 
z"/>
<path fill="#147576" opacity="1.000000" stroke="none" 
	d="
M20.960972,79.677315 
	C20.401131,79.836914 19.859735,79.660851 19.155243,79.242615 
	C19.459646,78.680756 19.927149,78.361069 20.691545,78.019424 
	C20.985434,78.445526 20.982426,78.893585 20.960972,79.677315 
z"/>
<path fill="#0E6063" opacity="1.000000" stroke="none" 
	d="
M6.164997,49.817513 
	C6.029987,49.086761 6.198890,48.198013 6.680171,47.170464 
	C6.818003,47.907616 6.643456,48.783562 6.164997,49.817513 
z"/>
<path fill="#157374" opacity="1.000000" stroke="none" 
	d="
M16.542152,29.997627 
	C16.624382,29.374620 16.997070,28.751041 17.625513,28.010056 
	C17.881268,27.892653 17.972595,27.976938 18.001896,28.340912 
	C18.023781,29.133631 18.016363,29.562376 18.008944,29.991121 
	C18.008944,29.991121 18.001360,29.998657 17.997993,30.002026 
	C17.607290,30.002615 17.219952,29.999836 16.542152,29.997627 
z"/>
<path fill="#147576" opacity="1.000000" stroke="none" 
	d="
M23.004997,172.995087 
	C23.462383,173.147034 23.914854,173.303818 24.367329,173.460602 
	C24.231842,173.741608 24.096352,174.022629 23.960861,174.303635 
	C23.650471,174.042679 23.340084,173.781708 23.010170,173.265167 
	C22.990644,173.009583 23.000086,172.999939 23.004997,172.995087 
z"/>
<path fill="#136465" opacity="1.000000" stroke="none" 
	d="
M44.895168,38.073021 
	C44.963444,38.362152 44.782394,38.635887 44.362026,38.983643 
	C44.297089,38.724323 44.471466,38.390972 44.895168,38.073021 
z"/>
<path fill="#0A5C5E" opacity="1.000000" stroke="none" 
	d="
M160.807098,175.819733 
	C160.768723,175.347794 161.068832,174.771088 161.653900,174.034592 
	C161.674438,174.488190 161.410019,175.101562 160.807098,175.819733 
z"/>
<path fill="#0A5C5E" opacity="1.000000" stroke="none" 
	d="
M162.153320,173.837036 
	C162.043747,173.387619 162.225403,172.798798 162.672974,172.046417 
	C162.774109,172.487808 162.609314,173.092728 162.153320,173.837036 
z"/>
<path fill="#136465" opacity="1.000000" stroke="none" 
	d="
M50.959396,35.252762 
	C50.772953,35.613972 50.243584,35.885422 49.407497,36.216324 
	C49.606010,35.904850 50.111240,35.533924 50.959396,35.252762 
z"/>
<path fill="#147576" opacity="1.000000" stroke="none" 
	d="
M10.892794,70.779716 
	C10.675406,70.900017 10.413217,70.712700 10.106368,70.217499 
	C10.322944,70.098427 10.585037,70.285919 10.892794,70.779716 
z"/>
<path fill="#147576" opacity="1.000000" stroke="none" 
	d="
M14.911594,69.832245 
	C14.833228,70.000664 14.666219,70.001015 14.248672,70.000839 
	C14.273073,69.888268 14.548013,69.776222 14.911594,69.832245 
z"/>
<path fill="#147374" opacity="1.000000" stroke="none" 
	d="
M35.467697,220.448547 
	C35.524178,220.414734 35.411221,220.482346 35.467697,220.448547 
z"/>
<path fill="#147374" opacity="1.000000" stroke="none" 
	d="
M39.533508,225.550690 
	C39.476646,225.585022 39.590366,225.516357 39.533508,225.550690 
z"/>
<path fill="#0C6062" opacity="1.000000" stroke="none" 
	d="
M30.025249,52.948250 
	C30.146021,53.184444 29.984098,53.601448 29.520323,54.159698 
	C29.393164,53.910313 29.567858,53.519688 30.025249,52.948250 
z"/>
<path fill="#147576" opacity="1.000000" stroke="none" 
	d="
M20.533363,191.549957 
	C20.477482,191.583344 20.589247,191.516571 20.533363,191.549957 
z"/>
<path fill="#147576" opacity="1.000000" stroke="none" 
	d="
M15.999845,190.999695 
	C15.724866,191.112686 15.450043,191.225998 15.087351,191.169952 
	C14.999483,191.000610 15.000000,191.000000 15.250358,190.999878 
	C15.500715,190.999741 16.000546,191.000610 16.000546,191.000610 
	C16.000546,191.000610 16.000000,191.000000 15.999845,190.999695 
z"/>
<path fill="#147576" opacity="1.000000" stroke="none" 
	d="
M17.466797,180.449387 
	C17.523542,180.415268 17.410051,180.483505 17.466797,180.449387 
z"/>
<path fill="#177B7A" opacity="1.000000" stroke="none" 
	d="
M10.448957,91.532333 
	C10.415726,91.476547 10.482189,91.588127 10.448957,91.532333 
z"/>
<path fill="#177A7A" opacity="1.000000" stroke="none" 
	d="
M15.912930,190.831482 
	C16.000546,191.000610 15.500715,190.999741 15.250815,190.999573 
	C15.275715,190.887039 15.550515,190.774689 15.912930,190.831482 
z"/>
<path fill="#000000" opacity="1.000000" stroke="none" 
	d="
M404.386932,171.016296 
	C410.081238,168.838882 414.892548,170.059143 419.018097,173.597031 
	C424.054932,177.916412 426.873474,183.491486 425.752716,190.244675 
	C424.779877,196.106232 422.143768,201.238159 416.546722,204.123413 
	C406.437164,209.334885 394.864868,202.074417 393.957672,190.242584 
	C393.297638,181.634949 396.123230,175.093262 404.386932,171.016296 
z"/>
<path fill="#000000" opacity="1.000000" stroke="none" 
	d="
M360.152161,78.049088 
	C352.320892,74.194069 350.931061,67.514442 350.974243,60.031528 
	C351.014038,53.136307 354.728577,48.519821 360.315094,45.434872 
	C365.182800,42.746872 370.505341,43.425217 374.836914,46.583267 
	C380.453156,50.677979 383.903595,56.534065 382.815155,63.688259 
	C381.703003,70.998405 378.449463,77.471901 370.342346,79.088234 
	C367.253357,79.704094 363.805817,78.521461 360.152161,78.049088 
z"/>
<path fill="#000000" opacity="1.000000" stroke="none" 
	d="
M450.422913,69.083549 
	C446.380188,78.712349 437.943695,80.915619 432.981873,79.844269 
	C425.277252,78.180679 420.404175,71.086021 419.916901,62.715408 
	C419.330292,52.638390 425.193634,47.197788 430.524414,45.010693 
	C435.761200,42.862160 440.672974,43.916447 444.824005,47.421345 
	C450.019073,51.807747 452.794342,57.444969 451.721527,64.474091 
	C451.500275,65.923737 451.016388,67.333298 450.422913,69.083549 
z"/>
<path fill="#F93A3C" opacity="1.000000" stroke="none" 
	d="
M68.936157,112.493362 
	C75.863602,100.951157 82.747131,89.382240 89.741936,77.881012 
	C92.241508,73.771080 99.190826,74.925140 102.482307,79.992088 
	C108.419357,89.131660 114.788292,98.042465 120.022270,107.573036 
	C125.737488,117.979881 130.039978,129.058060 124.857368,141.199326 
	C119.196014,154.462143 104.018997,162.496338 90.068130,159.240021 
	C77.380707,156.278610 69.977020,148.666000 66.012138,135.998108 
	C65.986397,130.722900 65.961739,126.297783 65.937088,121.872665 
	C65.937088,121.872665 65.971283,121.985016 66.225838,121.790024 
	C66.968269,119.355614 67.456146,117.116180 67.944023,114.876755 
	C67.944023,114.876755 67.973366,114.980095 68.237198,114.802269 
	C68.646080,113.914085 68.791122,113.203720 68.936157,112.493362 
z"/>
<path fill="#177A7A" opacity="1.000000" stroke="none" 
	d="
M154.040924,184.283661 
	C154.493896,184.904694 155.369705,186.075714 155.076477,186.666794 
	C154.138519,188.557571 152.767197,190.233398 150.881805,192.987473 
	C150.881805,190.674438 150.881805,188.854767 150.859222,186.688263 
	C151.867294,185.750351 152.897964,185.159271 154.040924,184.283661 
z"/>
<path fill="#177A7A" opacity="1.000000" stroke="none" 
	d="
M22.906105,153.537674 
	C22.646507,149.549805 22.458883,145.102417 22.521687,140.331329 
	C22.840771,144.364487 22.909426,148.721313 22.906105,153.537674 
z"/>
<path fill="#F70C0C" opacity="1.000000" stroke="none" 
	d="
M65.575150,122.117233 
	C65.961739,126.297783 65.986397,130.722900 65.995323,135.618988 
	C65.724136,131.513901 65.468681,126.937851 65.575150,122.117233 
z"/>
<path fill="#177A7A" opacity="1.000000" stroke="none" 
	d="
M22.845802,103.543900 
	C22.591393,99.884361 22.432335,95.770065 22.521095,91.333931 
	C22.826326,95.037781 22.883738,99.063461 22.845802,103.543900 
z"/>
<path fill="#F70C0C" opacity="1.000000" stroke="none" 
	d="
M67.640030,115.098038 
	C67.456146,117.116180 66.968269,119.355614 66.168396,121.802208 
	C66.349617,119.779358 66.842827,117.549347 67.640030,115.098038 
z"/>
<path fill="#177A7A" opacity="1.000000" stroke="none" 
	d="
M22.854998,87.557175 
	C22.605146,85.205002 22.451515,82.411484 22.538231,79.314178 
	C22.836126,81.712212 22.893673,84.414024 22.854998,87.557175 
z"/>
<path fill="#177A7A" opacity="1.000000" stroke="none" 
	d="
M22.865089,128.564529 
	C22.599569,126.533676 22.426958,124.066696 22.495609,121.306808 
	C22.810583,123.385399 22.884293,125.756897 22.865089,128.564529 
z"/>
<path fill="#177A7A" opacity="1.000000" stroke="none" 
	d="
M22.844501,107.672104 
	C22.627607,107.439148 22.497854,106.877640 22.562950,106.161255 
	C22.815746,106.452103 22.873693,106.897827 22.844501,107.672104 
z"/>
<path fill="#F70C0C" opacity="1.000000" stroke="none" 
	d="
M68.652763,112.712662 
	C68.791122,113.203720 68.646080,113.914085 68.184357,114.811859 
	C68.034904,114.310173 68.202133,113.621063 68.652763,112.712662 
z"/>
<path fill="#177A7A" opacity="1.000000" stroke="none" 
	d="
M22.857704,115.673279 
	C22.647085,115.441635 22.516327,114.879723 22.580601,114.161674 
	C22.829609,114.451363 22.883587,114.897186 22.857704,115.673279 
z"/>
<path fill="#177A7A" opacity="1.000000" stroke="none" 
	d="
M40.995857,217.003235 
	C40.870869,216.859634 40.749992,216.712799 40.629108,216.565979 
	C40.717438,216.614807 40.805771,216.663651 40.950226,216.852158 
	C41.006351,216.991821 40.999966,217.000000 40.995857,217.003235 
z"/>
<path fill="#177A7A" opacity="1.000000" stroke="none" 
	d="
M144.705353,202.872742 
	C142.076187,205.117432 140.993408,203.925781 140.999710,200.388550 
	C142.136093,200.916611 143.273407,201.831055 144.705353,202.872742 
z"/>
<path fill="#177A7A" opacity="1.000000" stroke="none" 
	d="
M146.225708,204.855179 
	C145.998596,204.556259 145.997803,204.111649 145.996918,203.333588 
	C146.148544,203.569931 146.300293,204.139709 146.225708,204.855179 
z"/>
<path fill="#177A7A" opacity="1.000000" stroke="none" 
	d="
M18.352497,29.989647 
	C18.016363,29.562376 18.023781,29.133631 18.046761,28.383907 
	C18.881037,28.350271 19.699749,28.637613 20.518463,28.924957 
	C19.910992,29.279364 19.303520,29.633768 18.352497,29.989647 
z"/>
<path fill="#177A7A" opacity="1.000000" stroke="none" 
	d="
M149.466309,213.449738 
	C149.522095,213.416458 149.410522,213.483032 149.466309,213.449738 
z"/>
<path fill="#177A7A" opacity="1.000000" stroke="none" 
	d="
M146.534576,212.551239 
	C146.477676,212.585480 146.591461,212.517014 146.534576,212.551239 
z"/>
<path fill="#177A7A" opacity="1.000000" stroke="none" 
	d="
M143.465729,209.445969 
	C143.524033,209.410782 143.407425,209.481155 143.465729,209.445969 
z"/>
<path fill="#177A7A" opacity="1.000000" stroke="none" 
	d="
M143.466553,207.448318 
	C143.523407,207.414139 143.409714,207.482498 143.466553,207.448318 
z"/>
</svg>